<mxfile host="app.diagrams.net" modified="2024-06-25T23:15:01.821Z" agent="Mozilla/5.0 (X11; Linux x86_64; rv:127.0) Gecko/20100101 Firefox/127.0" etag="faWXT_lsAE2LiIDKrv2J" version="24.6.3" type="github">
  <diagram name="‫עמוד-1‬" id="jN9KYeUMFRXG57PI0Pwi">
    <mxGraphModel dx="1082" dy="759" grid="1" gridSize="10" guides="1" tooltips="1" connect="1" arrows="1" fold="1" page="1" pageScale="1" pageWidth="827" pageHeight="1169" math="0" shadow="0">
      <root>
        <mxCell id="0" />
        <mxCell id="1" parent="0" />
        <mxCell id="sxhvT8WHKvoi52PtGWEn-1" value="" style="rounded=0;orthogonalLoop=1;jettySize=auto;html=1;labelBackgroundColor=none;fontColor=default;fillColor=#f8cecc;strokeColor=#b85450;textDirection=rtl;" edge="1" parent="1" source="sxhvT8WHKvoi52PtGWEn-4" target="sxhvT8WHKvoi52PtGWEn-10">
          <mxGeometry relative="1" as="geometry" />
        </mxCell>
        <mxCell id="sxhvT8WHKvoi52PtGWEn-2" style="rounded=0;orthogonalLoop=1;jettySize=auto;html=1;entryX=0.5;entryY=0;entryDx=0;entryDy=0;labelBackgroundColor=none;fontColor=default;fillColor=#d5e8d4;strokeColor=#82b366;textDirection=rtl;" edge="1" parent="1" source="sxhvT8WHKvoi52PtGWEn-4" target="sxhvT8WHKvoi52PtGWEn-8">
          <mxGeometry relative="1" as="geometry" />
        </mxCell>
        <mxCell id="sxhvT8WHKvoi52PtGWEn-3" style="rounded=0;orthogonalLoop=1;jettySize=auto;html=1;entryX=0.5;entryY=0;entryDx=0;entryDy=0;labelBackgroundColor=none;fontColor=default;fillColor=#dae8fc;strokeColor=#6c8ebf;textDirection=rtl;" edge="1" parent="1" source="sxhvT8WHKvoi52PtGWEn-4" target="sxhvT8WHKvoi52PtGWEn-6">
          <mxGeometry relative="1" as="geometry" />
        </mxCell>
        <mxCell id="sxhvT8WHKvoi52PtGWEn-4" value="חברת הייטק בע&quot;מ&lt;div&gt;-&lt;/div&gt;&lt;div&gt;10.0.0.0/24&lt;/div&gt;" style="rounded=1;whiteSpace=wrap;html=1;arcSize=50;labelBackgroundColor=none;fillColor=#fff2cc;strokeColor=#d6b656;textDirection=rtl;" vertex="1" parent="1">
          <mxGeometry x="408" y="265" width="120" height="60" as="geometry" />
        </mxCell>
        <mxCell id="sxhvT8WHKvoi52PtGWEn-5" value="" style="edgeStyle=orthogonalEdgeStyle;rounded=0;orthogonalLoop=1;jettySize=auto;html=1;labelBackgroundColor=none;fontColor=default;fillColor=#dae8fc;strokeColor=#6c8ebf;textDirection=rtl;" edge="1" parent="1" source="sxhvT8WHKvoi52PtGWEn-6" target="sxhvT8WHKvoi52PtGWEn-13">
          <mxGeometry relative="1" as="geometry" />
        </mxCell>
        <mxCell id="sxhvT8WHKvoi52PtGWEn-6" value="סניף 1 - ירושלים&lt;div&gt;-&lt;/div&gt;&lt;div&gt;10.1.0.0/16&lt;/div&gt;" style="shape=hexagon;perimeter=hexagonPerimeter2;whiteSpace=wrap;html=1;fixedSize=1;rounded=1;labelBackgroundColor=none;fillColor=#dae8fc;strokeColor=#6c8ebf;textDirection=rtl;" vertex="1" parent="1">
          <mxGeometry x="684" y="385" width="120" height="80" as="geometry" />
        </mxCell>
        <mxCell id="sxhvT8WHKvoi52PtGWEn-7" value="" style="edgeStyle=orthogonalEdgeStyle;rounded=0;orthogonalLoop=1;jettySize=auto;html=1;labelBackgroundColor=none;fontColor=default;textDirection=rtl;fillColor=#d5e8d4;strokeColor=#82b366;" edge="1" parent="1" source="sxhvT8WHKvoi52PtGWEn-8" target="sxhvT8WHKvoi52PtGWEn-29">
          <mxGeometry relative="1" as="geometry" />
        </mxCell>
        <mxCell id="sxhvT8WHKvoi52PtGWEn-8" value="סניף 3 - בת ים&lt;div&gt;-&lt;/div&gt;&lt;div&gt;10.3.0.0/16&lt;/div&gt;" style="shape=hexagon;perimeter=hexagonPerimeter2;whiteSpace=wrap;html=1;fixedSize=1;rounded=1;labelBackgroundColor=none;fillColor=#d5e8d4;strokeColor=#82b366;textDirection=rtl;" vertex="1" parent="1">
          <mxGeometry x="134" y="390" width="120" height="80" as="geometry" />
        </mxCell>
        <mxCell id="sxhvT8WHKvoi52PtGWEn-9" value="" style="edgeStyle=orthogonalEdgeStyle;rounded=0;orthogonalLoop=1;jettySize=auto;html=1;labelBackgroundColor=none;fontColor=default;fillColor=#f8cecc;strokeColor=#b85450;textDirection=rtl;" edge="1" parent="1" source="sxhvT8WHKvoi52PtGWEn-10" target="sxhvT8WHKvoi52PtGWEn-21">
          <mxGeometry relative="1" as="geometry" />
        </mxCell>
        <mxCell id="sxhvT8WHKvoi52PtGWEn-10" value="סניף 2 - תל אביב&lt;div&gt;-&lt;/div&gt;&lt;div&gt;10.2.0.0/16&lt;/div&gt;" style="shape=hexagon;perimeter=hexagonPerimeter2;whiteSpace=wrap;html=1;fixedSize=1;rounded=1;labelBackgroundColor=none;fillColor=#f8cecc;strokeColor=#b85450;textDirection=rtl;" vertex="1" parent="1">
          <mxGeometry x="408" y="385" width="120" height="80" as="geometry" />
        </mxCell>
        <mxCell id="sxhvT8WHKvoi52PtGWEn-11" value="" style="edgeStyle=orthogonalEdgeStyle;rounded=0;orthogonalLoop=1;jettySize=auto;html=1;labelBackgroundColor=none;fontColor=default;fillColor=#dae8fc;strokeColor=#6c8ebf;textDirection=rtl;" edge="1" parent="1" source="sxhvT8WHKvoi52PtGWEn-13" target="sxhvT8WHKvoi52PtGWEn-16">
          <mxGeometry relative="1" as="geometry" />
        </mxCell>
        <mxCell id="sxhvT8WHKvoi52PtGWEn-12" value="" style="edgeStyle=orthogonalEdgeStyle;rounded=0;orthogonalLoop=1;jettySize=auto;html=1;fillColor=#dae8fc;strokeColor=#6c8ebf;textDirection=rtl;" edge="1" parent="1" source="sxhvT8WHKvoi52PtGWEn-13" target="sxhvT8WHKvoi52PtGWEn-48">
          <mxGeometry relative="1" as="geometry" />
        </mxCell>
        <mxCell id="sxhvT8WHKvoi52PtGWEn-13" value="מחלקה 1 - ההנהלה&lt;div&gt;-&lt;/div&gt;&lt;div&gt;10.1.10.0/24&lt;/div&gt;" style="whiteSpace=wrap;html=1;rounded=1;labelBackgroundColor=none;fillColor=#dae8fc;strokeColor=#6c8ebf;textDirection=rtl;" vertex="1" parent="1">
          <mxGeometry x="684" y="555" width="120" height="60" as="geometry" />
        </mxCell>
        <mxCell id="sxhvT8WHKvoi52PtGWEn-14" value="" style="edgeStyle=orthogonalEdgeStyle;rounded=0;orthogonalLoop=1;jettySize=auto;html=1;labelBackgroundColor=none;fontColor=default;fillColor=#dae8fc;strokeColor=#6c8ebf;textDirection=rtl;" edge="1" parent="1" source="sxhvT8WHKvoi52PtGWEn-16" target="sxhvT8WHKvoi52PtGWEn-18">
          <mxGeometry relative="1" as="geometry" />
        </mxCell>
        <mxCell id="sxhvT8WHKvoi52PtGWEn-15" value="" style="edgeStyle=orthogonalEdgeStyle;rounded=0;orthogonalLoop=1;jettySize=auto;html=1;fillColor=#dae8fc;strokeColor=#6c8ebf;textDirection=rtl;" edge="1" parent="1" source="sxhvT8WHKvoi52PtGWEn-16" target="sxhvT8WHKvoi52PtGWEn-49">
          <mxGeometry relative="1" as="geometry" />
        </mxCell>
        <mxCell id="sxhvT8WHKvoi52PtGWEn-16" value="מחלקה 2 - פיתוח&lt;div&gt;-&lt;/div&gt;&lt;div&gt;10.1.20.0/24&lt;/div&gt;" style="whiteSpace=wrap;html=1;rounded=1;labelBackgroundColor=none;fillColor=#dae8fc;strokeColor=#6c8ebf;textDirection=rtl;" vertex="1" parent="1">
          <mxGeometry x="684" y="695" width="120" height="60" as="geometry" />
        </mxCell>
        <mxCell id="sxhvT8WHKvoi52PtGWEn-17" value="" style="edgeStyle=orthogonalEdgeStyle;rounded=0;orthogonalLoop=1;jettySize=auto;html=1;fillColor=#dae8fc;strokeColor=#6c8ebf;textDirection=rtl;" edge="1" parent="1" source="sxhvT8WHKvoi52PtGWEn-18" target="sxhvT8WHKvoi52PtGWEn-50">
          <mxGeometry relative="1" as="geometry" />
        </mxCell>
        <mxCell id="sxhvT8WHKvoi52PtGWEn-18" value="מחלקה 3 - שיווק&lt;div&gt;-&lt;/div&gt;&lt;div&gt;10.1.30.0/24&lt;/div&gt;" style="whiteSpace=wrap;html=1;rounded=1;labelBackgroundColor=none;fillColor=#dae8fc;strokeColor=#6c8ebf;textDirection=rtl;" vertex="1" parent="1">
          <mxGeometry x="684" y="835" width="120" height="60" as="geometry" />
        </mxCell>
        <mxCell id="sxhvT8WHKvoi52PtGWEn-19" value="" style="edgeStyle=orthogonalEdgeStyle;rounded=0;orthogonalLoop=1;jettySize=auto;html=1;labelBackgroundColor=none;fontColor=default;fillColor=#f8cecc;strokeColor=#b85450;textDirection=rtl;" edge="1" parent="1" source="sxhvT8WHKvoi52PtGWEn-21" target="sxhvT8WHKvoi52PtGWEn-24">
          <mxGeometry relative="1" as="geometry" />
        </mxCell>
        <mxCell id="sxhvT8WHKvoi52PtGWEn-20" value="" style="edgeStyle=orthogonalEdgeStyle;rounded=0;orthogonalLoop=1;jettySize=auto;html=1;fillColor=#fad9d5;strokeColor=#ae4132;textDirection=rtl;" edge="1" parent="1" source="sxhvT8WHKvoi52PtGWEn-21" target="sxhvT8WHKvoi52PtGWEn-52">
          <mxGeometry relative="1" as="geometry" />
        </mxCell>
        <mxCell id="sxhvT8WHKvoi52PtGWEn-21" value="מחלקה 1 - כוח אדם&lt;div&gt;-&lt;/div&gt;&lt;div&gt;10.2.10.0/24&lt;/div&gt;" style="whiteSpace=wrap;html=1;rounded=1;labelBackgroundColor=none;fillColor=#f8cecc;strokeColor=#b85450;textDirection=rtl;" vertex="1" parent="1">
          <mxGeometry x="408" y="555" width="120" height="60" as="geometry" />
        </mxCell>
        <mxCell id="sxhvT8WHKvoi52PtGWEn-22" value="" style="edgeStyle=orthogonalEdgeStyle;rounded=0;orthogonalLoop=1;jettySize=auto;html=1;labelBackgroundColor=none;fontColor=default;fillColor=#f8cecc;strokeColor=#b85450;textDirection=rtl;" edge="1" parent="1" source="sxhvT8WHKvoi52PtGWEn-24" target="sxhvT8WHKvoi52PtGWEn-26">
          <mxGeometry relative="1" as="geometry" />
        </mxCell>
        <mxCell id="sxhvT8WHKvoi52PtGWEn-23" value="" style="edgeStyle=orthogonalEdgeStyle;rounded=0;orthogonalLoop=1;jettySize=auto;html=1;fillColor=#fad9d5;strokeColor=#ae4132;textDirection=rtl;" edge="1" parent="1" source="sxhvT8WHKvoi52PtGWEn-24" target="sxhvT8WHKvoi52PtGWEn-53">
          <mxGeometry relative="1" as="geometry" />
        </mxCell>
        <mxCell id="sxhvT8WHKvoi52PtGWEn-24" value="מחלקה 2 - פניות הציבור&lt;div&gt;-&lt;/div&gt;&lt;div&gt;10.2.20.0/24&lt;/div&gt;" style="whiteSpace=wrap;html=1;rounded=1;labelBackgroundColor=none;fillColor=#f8cecc;strokeColor=#b85450;textDirection=rtl;" vertex="1" parent="1">
          <mxGeometry x="408" y="695" width="120" height="60" as="geometry" />
        </mxCell>
        <mxCell id="sxhvT8WHKvoi52PtGWEn-25" value="" style="edgeStyle=orthogonalEdgeStyle;rounded=0;orthogonalLoop=1;jettySize=auto;html=1;fillColor=#fad9d5;strokeColor=#ae4132;textDirection=rtl;" edge="1" parent="1" source="sxhvT8WHKvoi52PtGWEn-26" target="sxhvT8WHKvoi52PtGWEn-54">
          <mxGeometry relative="1" as="geometry" />
        </mxCell>
        <mxCell id="sxhvT8WHKvoi52PtGWEn-26" value="מחלקה 3 - הנה&quot;ח&lt;div&gt;-&lt;/div&gt;&lt;div&gt;10.2.30.0/24&lt;/div&gt;" style="whiteSpace=wrap;html=1;rounded=1;labelBackgroundColor=none;fillColor=#f8cecc;strokeColor=#b85450;textDirection=rtl;" vertex="1" parent="1">
          <mxGeometry x="408" y="835" width="120" height="60" as="geometry" />
        </mxCell>
        <mxCell id="sxhvT8WHKvoi52PtGWEn-27" value="" style="edgeStyle=orthogonalEdgeStyle;rounded=0;orthogonalLoop=1;jettySize=auto;html=1;labelBackgroundColor=none;fontColor=default;fillColor=#d5e8d4;strokeColor=#82b366;textDirection=rtl;" edge="1" parent="1" source="sxhvT8WHKvoi52PtGWEn-29" target="sxhvT8WHKvoi52PtGWEn-32">
          <mxGeometry relative="1" as="geometry" />
        </mxCell>
        <mxCell id="sxhvT8WHKvoi52PtGWEn-28" value="" style="edgeStyle=orthogonalEdgeStyle;rounded=0;orthogonalLoop=1;jettySize=auto;html=1;fillColor=#d5e8d4;strokeColor=#82b366;textDirection=rtl;" edge="1" parent="1" source="sxhvT8WHKvoi52PtGWEn-29" target="sxhvT8WHKvoi52PtGWEn-55">
          <mxGeometry relative="1" as="geometry" />
        </mxCell>
        <mxCell id="sxhvT8WHKvoi52PtGWEn-29" value="מחלקה 1 - משפטית&lt;div&gt;-&lt;/div&gt;&lt;div&gt;10.3.10.0/24&lt;/div&gt;" style="whiteSpace=wrap;html=1;rounded=1;labelBackgroundColor=none;fillColor=#d5e8d4;strokeColor=#82b366;textDirection=rtl;" vertex="1" parent="1">
          <mxGeometry x="134" y="560" width="120" height="60" as="geometry" />
        </mxCell>
        <mxCell id="sxhvT8WHKvoi52PtGWEn-30" value="" style="edgeStyle=orthogonalEdgeStyle;rounded=0;orthogonalLoop=1;jettySize=auto;html=1;labelBackgroundColor=none;fontColor=default;fillColor=#d5e8d4;strokeColor=#82b366;textDirection=rtl;" edge="1" parent="1" source="sxhvT8WHKvoi52PtGWEn-32" target="sxhvT8WHKvoi52PtGWEn-34">
          <mxGeometry relative="1" as="geometry" />
        </mxCell>
        <mxCell id="sxhvT8WHKvoi52PtGWEn-31" value="" style="edgeStyle=orthogonalEdgeStyle;rounded=0;orthogonalLoop=1;jettySize=auto;html=1;fillColor=#d5e8d4;strokeColor=#82b366;textDirection=rtl;" edge="1" parent="1" source="sxhvT8WHKvoi52PtGWEn-32" target="sxhvT8WHKvoi52PtGWEn-56">
          <mxGeometry relative="1" as="geometry" />
        </mxCell>
        <mxCell id="sxhvT8WHKvoi52PtGWEn-32" value="מחלקה 2 - רכש&lt;div&gt;-&lt;/div&gt;&lt;div&gt;10.3.20.0/24&lt;/div&gt;" style="whiteSpace=wrap;html=1;rounded=1;labelBackgroundColor=none;fillColor=#d5e8d4;strokeColor=#82b366;textDirection=rtl;" vertex="1" parent="1">
          <mxGeometry x="134" y="700" width="120" height="60" as="geometry" />
        </mxCell>
        <mxCell id="sxhvT8WHKvoi52PtGWEn-33" value="" style="edgeStyle=orthogonalEdgeStyle;rounded=0;orthogonalLoop=1;jettySize=auto;html=1;fillColor=#d5e8d4;strokeColor=#82b366;textDirection=rtl;" edge="1" parent="1" source="sxhvT8WHKvoi52PtGWEn-34" target="sxhvT8WHKvoi52PtGWEn-57">
          <mxGeometry relative="1" as="geometry" />
        </mxCell>
        <mxCell id="sxhvT8WHKvoi52PtGWEn-34" value="מחלקה 3 - תחזוקה&lt;div&gt;-&lt;/div&gt;&lt;div&gt;10.3.30.0/24&lt;/div&gt;" style="whiteSpace=wrap;html=1;rounded=1;labelBackgroundColor=none;fillColor=#d5e8d4;strokeColor=#82b366;textDirection=rtl;" vertex="1" parent="1">
          <mxGeometry x="134" y="840" width="120" height="60" as="geometry" />
        </mxCell>
        <mxCell id="sxhvT8WHKvoi52PtGWEn-35" value="כתובות ה-IP יורדות בהיררכיה" style="text;html=1;align=center;verticalAlign=middle;resizable=0;points=[];autosize=1;strokeColor=none;fillColor=none;textDirection=rtl;" vertex="1" parent="1">
          <mxGeometry x="420" y="1480" width="160" height="30" as="geometry" />
        </mxCell>
        <mxCell id="sxhvT8WHKvoi52PtGWEn-36" value="" style="edgeStyle=orthogonalEdgeStyle;rounded=0;orthogonalLoop=1;jettySize=auto;html=1;textDirection=rtl;fillColor=#fad7ac;strokeColor=#b46504;" edge="1" parent="1" source="sxhvT8WHKvoi52PtGWEn-38" target="sxhvT8WHKvoi52PtGWEn-42">
          <mxGeometry relative="1" as="geometry" />
        </mxCell>
        <mxCell id="sxhvT8WHKvoi52PtGWEn-37" value="" style="edgeStyle=orthogonalEdgeStyle;rounded=0;orthogonalLoop=1;jettySize=auto;html=1;textDirection=rtl;fillColor=#fad7ac;strokeColor=#b46504;" edge="1" parent="1" source="sxhvT8WHKvoi52PtGWEn-38" target="sxhvT8WHKvoi52PtGWEn-39">
          <mxGeometry relative="1" as="geometry" />
        </mxCell>
        <mxCell id="sxhvT8WHKvoi52PtGWEn-38" value="בקומה הראשונה יש את הכתובת הראשית" style="rounded=1;whiteSpace=wrap;html=1;textDirection=rtl;arcSize=50;fillColor=#fad7ac;strokeColor=#b46504;" vertex="1" parent="1">
          <mxGeometry x="440" y="1530" width="120" height="60" as="geometry" />
        </mxCell>
        <mxCell id="sxhvT8WHKvoi52PtGWEn-39" value="&lt;div&gt;&lt;span style=&quot;background-color: initial;&quot;&gt;10.0.0.0&lt;/span&gt;&lt;br&gt;&lt;/div&gt;&lt;div&gt;רק האוקטטה הראשונה&lt;br&gt;&amp;nbsp;מורה על שם הרשת&lt;/div&gt;" style="text;html=1;align=center;verticalAlign=middle;resizable=0;points=[];autosize=1;strokeColor=none;fillColor=none;textDirection=rtl;" vertex="1" parent="1">
          <mxGeometry x="250" y="1530" width="130" height="60" as="geometry" />
        </mxCell>
        <mxCell id="sxhvT8WHKvoi52PtGWEn-40" value="" style="edgeStyle=orthogonalEdgeStyle;rounded=0;orthogonalLoop=1;jettySize=auto;html=1;fillColor=#fad9d5;strokeColor=#ae4132;textDirection=rtl;" edge="1" parent="1" source="sxhvT8WHKvoi52PtGWEn-42" target="sxhvT8WHKvoi52PtGWEn-43">
          <mxGeometry relative="1" as="geometry" />
        </mxCell>
        <mxCell id="sxhvT8WHKvoi52PtGWEn-41" value="" style="edgeStyle=orthogonalEdgeStyle;rounded=0;orthogonalLoop=1;jettySize=auto;html=1;fillColor=#fad9d5;strokeColor=#ae4132;textDirection=rtl;" edge="1" parent="1" source="sxhvT8WHKvoi52PtGWEn-42" target="sxhvT8WHKvoi52PtGWEn-46">
          <mxGeometry relative="1" as="geometry" />
        </mxCell>
        <mxCell id="sxhvT8WHKvoi52PtGWEn-42" value="בקומה השניה יש את כתובת המשנה&lt;br&gt;&amp;nbsp;- לכל סניף" style="shape=hexagon;perimeter=hexagonPerimeter2;whiteSpace=wrap;html=1;fixedSize=1;rounded=1;arcSize=50;textDirection=rtl;fillColor=#fad9d5;strokeColor=#ae4132;" vertex="1" parent="1">
          <mxGeometry x="440" y="1650" width="120" height="80" as="geometry" />
        </mxCell>
        <mxCell id="sxhvT8WHKvoi52PtGWEn-43" value="10.1.0.0/16&lt;div&gt;האוקטטה השניה מורה על שם הסניף&lt;br&gt;&amp;nbsp;- בתוך הרשת שנקראה 10, &lt;br&gt;שזה האוקטטה הראשונה&lt;/div&gt;" style="text;html=1;align=center;verticalAlign=middle;resizable=0;points=[];autosize=1;strokeColor=none;fillColor=none;textDirection=rtl;" vertex="1" parent="1">
          <mxGeometry x="190" y="1655" width="190" height="70" as="geometry" />
        </mxCell>
        <mxCell id="sxhvT8WHKvoi52PtGWEn-44" value="" style="edgeStyle=orthogonalEdgeStyle;rounded=0;orthogonalLoop=1;jettySize=auto;html=1;fillColor=#b1ddf0;strokeColor=#10739e;textDirection=rtl;" edge="1" parent="1" source="sxhvT8WHKvoi52PtGWEn-46" target="sxhvT8WHKvoi52PtGWEn-47">
          <mxGeometry relative="1" as="geometry" />
        </mxCell>
        <mxCell id="sxhvT8WHKvoi52PtGWEn-45" value="" style="edgeStyle=orthogonalEdgeStyle;rounded=0;orthogonalLoop=1;jettySize=auto;html=1;fillColor=#b1ddf0;strokeColor=#10739e;textDirection=rtl;" edge="1" parent="1" source="sxhvT8WHKvoi52PtGWEn-46" target="sxhvT8WHKvoi52PtGWEn-51">
          <mxGeometry relative="1" as="geometry" />
        </mxCell>
        <mxCell id="sxhvT8WHKvoi52PtGWEn-46" value="בקומה השלישית והלאה יש את שם המחלקה" style="rounded=1;whiteSpace=wrap;html=1;fillColor=#b1ddf0;strokeColor=#10739e;textDirection=rtl;" vertex="1" parent="1">
          <mxGeometry x="440" y="1820" width="120" height="60" as="geometry" />
        </mxCell>
        <mxCell id="sxhvT8WHKvoi52PtGWEn-47" value="10.1.20.0/24&lt;div&gt;האוקטטה הראשונה מורה על שם הרשת, &lt;br&gt;השניה על הסניף, והשלישית על המחלקה.&lt;/div&gt;" style="text;html=1;align=center;verticalAlign=middle;resizable=0;points=[];autosize=1;strokeColor=none;fillColor=none;textDirection=rtl;" vertex="1" parent="1">
          <mxGeometry x="160" y="1820" width="220" height="60" as="geometry" />
        </mxCell>
        <mxCell id="sxhvT8WHKvoi52PtGWEn-48" value="הטווח:&lt;div&gt;10.1.10.1&lt;/div&gt;&lt;div&gt;10.1.10.2&lt;/div&gt;&lt;div&gt;10.1.10.3&lt;/div&gt;" style="text;html=1;align=center;verticalAlign=middle;resizable=0;points=[];autosize=1;strokeColor=none;fillColor=none;textDirection=rtl;" vertex="1" parent="1">
          <mxGeometry x="574" y="550" width="70" height="70" as="geometry" />
        </mxCell>
        <mxCell id="sxhvT8WHKvoi52PtGWEn-49" value="הטווח:&lt;div&gt;10.1.20.1&lt;/div&gt;&lt;div&gt;10.1.20.2&lt;/div&gt;&lt;div&gt;10.1.20.3&lt;/div&gt;" style="text;html=1;align=center;verticalAlign=middle;resizable=0;points=[];autosize=1;strokeColor=none;fillColor=none;textDirection=rtl;" vertex="1" parent="1">
          <mxGeometry x="574" y="690" width="70" height="70" as="geometry" />
        </mxCell>
        <mxCell id="sxhvT8WHKvoi52PtGWEn-50" value="הטווח:&lt;div&gt;10.1.30.1&lt;/div&gt;&lt;div&gt;10.1.30.2&lt;/div&gt;&lt;div&gt;10.1.30.3&lt;/div&gt;" style="text;html=1;align=center;verticalAlign=middle;resizable=0;points=[];autosize=1;strokeColor=none;fillColor=none;textDirection=rtl;" vertex="1" parent="1">
          <mxGeometry x="574" y="830" width="70" height="70" as="geometry" />
        </mxCell>
        <mxCell id="sxhvT8WHKvoi52PtGWEn-51" value="בכל מחלקה &lt;br&gt;המחשבים מתפרסים על פי הסדר ההיררכי &lt;br&gt;של האוקטטה הרביעית" style="text;html=1;align=center;verticalAlign=middle;resizable=0;points=[];autosize=1;strokeColor=none;fillColor=none;textDirection=rtl;" vertex="1" parent="1">
          <mxGeometry x="390" y="1940" width="220" height="60" as="geometry" />
        </mxCell>
        <mxCell id="sxhvT8WHKvoi52PtGWEn-52" value="הטווח:&lt;div&gt;10.2.10.1&lt;/div&gt;&lt;div&gt;10.2.10.2&lt;/div&gt;&lt;div&gt;10.2.10.3&lt;/div&gt;" style="text;html=1;align=center;verticalAlign=middle;resizable=0;points=[];autosize=1;strokeColor=none;fillColor=none;textDirection=rtl;" vertex="1" parent="1">
          <mxGeometry x="299" y="550" width="70" height="70" as="geometry" />
        </mxCell>
        <mxCell id="sxhvT8WHKvoi52PtGWEn-53" value="הטווח:&lt;div&gt;10.2.20.1&lt;/div&gt;&lt;div&gt;10.2.20.2&lt;/div&gt;&lt;div&gt;10.2.20.3&lt;/div&gt;" style="text;html=1;align=center;verticalAlign=middle;resizable=0;points=[];autosize=1;strokeColor=none;fillColor=none;textDirection=rtl;" vertex="1" parent="1">
          <mxGeometry x="299" y="690" width="70" height="70" as="geometry" />
        </mxCell>
        <mxCell id="sxhvT8WHKvoi52PtGWEn-54" value="הטווח:&lt;div&gt;10.2.30.1&lt;/div&gt;&lt;div&gt;10.2.30.2&lt;/div&gt;&lt;div&gt;10.2.30.3&lt;/div&gt;" style="text;html=1;align=center;verticalAlign=middle;resizable=0;points=[];autosize=1;strokeColor=none;fillColor=none;textDirection=rtl;" vertex="1" parent="1">
          <mxGeometry x="299" y="830" width="70" height="70" as="geometry" />
        </mxCell>
        <mxCell id="sxhvT8WHKvoi52PtGWEn-55" value="הטווח:&lt;div&gt;10.3.10.1&lt;/div&gt;&lt;div&gt;10.3.10.2&lt;/div&gt;&lt;div&gt;10.3.10.3&lt;/div&gt;" style="text;html=1;align=center;verticalAlign=middle;resizable=0;points=[];autosize=1;strokeColor=none;fillColor=none;textDirection=rtl;" vertex="1" parent="1">
          <mxGeometry x="24" y="555" width="70" height="70" as="geometry" />
        </mxCell>
        <mxCell id="sxhvT8WHKvoi52PtGWEn-56" value="הטווח:&lt;div&gt;10.3.20.1&lt;/div&gt;&lt;div&gt;10.3.20.2&lt;/div&gt;&lt;div&gt;10.3.20.3&lt;/div&gt;" style="text;html=1;align=center;verticalAlign=middle;resizable=0;points=[];autosize=1;strokeColor=none;fillColor=none;textDirection=rtl;" vertex="1" parent="1">
          <mxGeometry x="24" y="695" width="70" height="70" as="geometry" />
        </mxCell>
        <mxCell id="sxhvT8WHKvoi52PtGWEn-57" value="הטווח:&lt;div&gt;10.3.30.1&lt;/div&gt;&lt;div&gt;10.3.30.2&lt;/div&gt;&lt;div&gt;10.3.30.3&lt;/div&gt;" style="text;html=1;align=center;verticalAlign=middle;resizable=0;points=[];autosize=1;strokeColor=none;fillColor=none;textDirection=rtl;" vertex="1" parent="1">
          <mxGeometry x="24" y="835" width="70" height="70" as="geometry" />
        </mxCell>
      </root>
    </mxGraphModel>
  </diagram>
</mxfile>
